<svg xmlns="http://www.w3.org/2000/svg" width="28" height="28" fill="none" viewBox="0 0 28 28"><g clip-path="url(#clip0_853_1442)"><path fill="#000" fill-rule="evenodd" d="M14 0C6.26875 0 0 6.42534 0 14.357C0 20.7011 4.0125 26.0764 9.575 27.9765C10.275 28.1077 10.5312 27.664 10.5312 27.2827C10.5312 26.9389 10.5188 26.0389 10.5125 24.8388C6.61875 25.7076 5.79375 22.9137 5.79375 22.9137C5.15625 21.2574 4.2375 20.8136 4.2375 20.8136C2.96875 19.9198 4.33125 19.9386 4.33125 19.9386C5.7375 20.0386 6.475 21.4199 6.475 21.4199C7.725 23.6137 9.75 22.9825 10.55 22.6137C10.675 21.6886 11.0375 21.0511 11.4375 20.6948C8.33125 20.3323 5.0625 19.101 5.0625 13.6007C5.0625 12.0319 5.60625 10.7506 6.5 9.75051C6.35625 9.388 5.875 7.92542 6.6375 5.95031C6.6375 5.95031 7.8125 5.56279 10.4875 7.41914C11.6062 7.10037 12.8 6.94412 13.9937 6.93787C15.1812 6.94412 16.3813 7.10037 17.5 7.41914C20.175 5.56279 21.3438 5.95031 21.3438 5.95031C22.1063 7.92542 21.625 9.388 21.4813 9.75051C22.375 10.7568 22.9188 12.0381 22.9188 13.6007C22.9188 19.1135 19.6437 20.3261 16.525 20.6823C17.025 21.1261 17.475 22.0012 17.475 23.3387C17.475 25.2576 17.4562 26.8077 17.4562 27.2764C17.4562 27.6577 17.7063 28.1077 18.4188 27.964C23.9938 26.0701 28 20.6948 28 14.357C28 6.42534 21.7313 0 14 0Z" clip-rule="evenodd" style="fill:#000;fill-opacity:1"/></g><defs><clipPath id="clip0_853_1442"><rect width="28" height="28" fill="#fff" style="fill:#fff;fill-opacity:1"/></clipPath></defs></svg>