<svg xmlns="http://www.w3.org/2000/svg" width="64" height="49" fill="none" viewBox="0 0 64 49"><path fill="#0756CA" d="M1.59888 0H62.4011C63.2842 0 64 0.715776 64 1.59888V46.7826C64 47.6657 63.2842 48.3815 62.4011 48.3815H1.59888C0.715776 48.3815 0 47.6657 0 46.7826V1.59888C0 0.715776 0.715776 0 1.59888 0ZM12.9126 22.3231C12.9126 24.427 9.71411 24.427 9.71411 22.3231C9.71411 19.8062 10.8854 17.4389 12.8654 15.8997C12.7407 15.7238 12.6245 15.5418 12.5183 15.3543C12.0187 14.4674 11.7344 13.4464 11.7344 12.3619C11.7344 8.98671 14.4705 6.25065 17.8456 6.25065C21.22 6.25065 23.9568 8.98671 23.9568 12.3619C23.9568 13.6315 23.5625 14.8671 22.8251 15.8997C24.8058 17.4389 25.9771 19.8062 25.9771 22.3231C25.9771 24.427 22.7786 24.427 22.7786 22.3231C22.7786 20.5073 21.8033 18.8604 20.2114 17.9912C19.4685 18.3057 18.652 18.4731 17.8456 18.4731C17.0392 18.4731 16.2219 18.3057 15.479 17.9912C13.8879 18.8604 12.9126 20.5073 12.9126 22.3231ZM8.64122 29.4491H27.0492C27.9323 29.4491 28.6489 30.1656 28.6489 31.0487V40.5312C28.6489 41.4143 27.9323 42.1309 27.0492 42.1309H8.64122C7.75812 42.1309 7.04234 41.4143 7.04234 40.5312V31.0487C7.04234 30.1656 7.75812 29.4491 8.64122 29.4491ZM25.4503 32.6476H10.2409V38.9323H25.4503V32.6476ZM17.8456 9.44918C16.2367 9.44918 14.9329 10.7529 14.9329 12.3619C14.9329 13.9956 16.2421 15.2745 17.8456 15.2745C19.4507 15.2745 20.7583 13.9817 20.7583 12.3619C20.7583 10.7529 19.4538 9.44918 17.8456 9.44918ZM32.0697 11.705C29.9665 11.705 29.9665 8.50643 32.0697 8.50643H55.3588C57.462 8.50643 57.462 11.705 55.3588 11.705H32.0697ZM35.6959 39.8751C33.5919 39.8751 33.5919 36.6758 35.6959 36.6758H55.3588C57.462 36.6758 57.462 39.8751 55.3588 39.8751H35.6959ZM32.0697 18.7473C29.9665 18.7473 29.9665 15.5488 32.0697 15.5488H55.3588C57.462 15.5488 57.462 18.7473 55.3588 18.7473H32.0697ZM35.6959 25.7896C33.5919 25.7896 33.5919 22.5911 35.6959 22.5911H55.3588C57.462 22.5911 57.462 25.7896 55.3588 25.7896H35.6959ZM35.6959 32.8328C33.5919 32.8328 33.5919 29.6334 35.6959 29.6334H55.3588C57.462 29.6334 57.462 32.8328 55.3588 32.8328H35.6959ZM60.8015 3.19853H3.19853V45.183H60.8015V3.19853Z" style="fill:color(display-p3 .0264 .3361 .7924);fill-opacity:1"/></svg>