<svg width="74" height="36" viewBox="0 0 74 36" fill="none" xmlns="http://www.w3.org/2000/svg">
  <g clip-path="url(#clip0_839_912)">
    <path d="M45.6113 29.5H49.1113V7.50001H45.6113V29.5ZM53.9113 29.5H62.3113C68.9113 29.5 73.6113 24.9 73.6113 18.5C73.6113 12.1 68.9113 7.50001 62.3113 7.50001H53.9113V29.5ZM57.6113 26.1V10.9H62.3113C66.7113 10.9 69.8113 14 69.8113 18.5C69.8113 23 66.8113 26.1 62.3113 26.1H57.6113Z" fill="black" style="fill:black;fill-opacity:1;" />
    <path d="M0.611328 17.3C0.611328 9 0.611328 5 3.11133 2.5C5.71133 0 9.71133 0 17.9113 0H19.3113C27.6113 0 31.6113 0 34.1113 2.5C36.6113 5.1 36.6113 9.1 36.6113 17.3V18.7C36.6113 26.9 36.6113 30.9 34.1113 33.5C31.5113 36 27.5113 36 19.3113 36H17.9113C9.61133 36 5.61133 36 3.11133 33.5C0.611328 30.9 0.611328 26.9 0.611328 18.7V17.3Z" fill="#0077FF" style="fill:#0077FF;fill:color(display-p3 0.0000 0.4667 1.0000);fill-opacity:1;" />
    <path d="M19.9109 26C11.8109 26 6.91094 20.4 6.71094 11H10.7109C10.9109 17.9 14.1109 20.8 16.5109 21.4V11H20.4109V17C22.7109 16.7 25.1109 14 25.9109 11H29.9109C29.2109 14.7 26.6109 17.4 24.7109 18.5C26.6109 19.4 29.6109 21.7 30.7109 26H26.6109C25.6109 23.1 23.5109 21 20.5109 20.6V26H20.0109H19.9109Z" fill="white" style="fill:white;fill-opacity:1;" />
  </g>
  <defs>
    <clipPath id="clip0_839_912">
      <rect width="73" height="36" fill="white" style="fill:white;fill-opacity:1;" transform="translate(0.611328)" />
    </clipPath>
  </defs>
</svg>