<svg xmlns="http://www.w3.org/2000/svg" width="74" height="36" fill="none" viewBox="0 0 74 36"><path fill="#000" fill-rule="evenodd" d="M56.0002 36C70.4005 36 74 32.4 74 18C74 3.6 70.4005 0 56.0002 0C41.6004 0 38 3.6 38 18C38 32.4 41.6004 36 56.0002 36ZM49.8005 28.7816V7.18164H46.0402V28.7816H49.8005ZM59.0602 7.18164C60.4807 7.18164 61.8 7.36166 63.0205 7.74166C64.24 8.10165 65.2808 8.72162 66.1608 9.56162C67.0403 10.3817 67.7406 11.5016 68.24 12.8417C68.7601 14.1817 69.0004 15.8817 69.0004 17.8616C69.0004 19.6216 68.7403 21.1816 68.24 22.5416C67.7203 23.8816 67.02 25.0216 66.1206 25.9616C65.2202 26.9016 64.1208 27.6016 62.88 28.0616C61.6406 28.5216 60.2405 28.7816 58.7604 28.7816H54.0199V7.18164H59.0602ZM58.4407 25.8616C59.4399 25.8616 60.3804 25.6816 61.2207 25.3416C62.0402 25.0016 62.7405 24.4816 63.3406 23.8416C63.9402 23.1616 64.38 22.3416 64.7204 21.3216C65.0406 20.3016 65.2202 19.1416 65.2202 17.8016C65.2202 16.3416 65.0604 15.1416 64.7606 14.1417C64.4405 13.1616 64.0007 12.3616 63.4404 11.7616C62.88 11.1617 62.2005 10.7217 61.3999 10.4616C60.6202 10.2016 59.7406 10.0816 58.7807 10.0816H57.8005V25.8216H58.48L58.4407 25.8616Z" clip-rule="evenodd" style="fill:#000;fill-opacity:1"/><circle cx="18" cy="18" r="18" fill="#E85032" style="fill:color(display-p3 .9098 .3137 .1961);fill-opacity:1"/><path fill="#fff" d="M21.0769 9.97464H19.3223C16.1108 9.97464 14.4196 11.5595 14.4196 13.9045C14.4196 16.565 15.5893 17.7971 17.9994 19.3819L19.9779 20.6799L14.2575 28.9986H10L15.1282 21.5562C12.1671 19.4995 10.5112 17.5088 10.5112 14.1153C10.5112 9.86996 13.5356 7 19.2811 7H25V29H21.0769V9.97464Z" style="fill:#fff;fill-opacity:1"/></svg>