<svg width="131" height="19" viewBox="0 0 131 19" fill="none" xmlns="http://www.w3.org/2000/svg">
<path d="M0 0.759938H3.86932L9.05114 13.4077H9.25568L14.4375 0.759938H18.3068V18.2145H15.2727V6.22301H15.1108L10.2869 18.1633H8.01989L3.19602 6.19744H3.03409V18.2145H0V0.759938Z" fill="black" style="fill:black;fill-opacity:1;"/>
<path d="M27.8891 18.4702C26.5766 18.4702 25.4431 18.1974 24.4885 17.652C23.5397 17.1008 22.8095 16.3224 22.2982 15.3168C21.7868 14.3054 21.5311 13.1151 21.5311 11.7457C21.5311 10.3991 21.7868 9.21732 22.2982 8.20028C22.8152 7.17755 23.5368 6.3821 24.463 5.81391C25.3891 5.24005 26.4772 4.95312 27.7272 4.95312C28.534 4.95312 29.2953 5.0838 30.0112 5.34516C30.7328 5.60085 31.3692 5.99857 31.9203 6.53835C32.4772 7.07812 32.9147 7.76562 33.2328 8.60085C33.551 9.43039 33.7101 10.419 33.7101 11.5668V12.5128H22.98V10.4332H30.7527C30.747 9.84232 30.6192 9.31676 30.3692 8.85653C30.1192 8.39062 29.7698 8.02414 29.3209 7.7571C28.8777 7.49005 28.3607 7.35653 27.7698 7.35653C27.1391 7.35653 26.5851 7.50994 26.1078 7.81676C25.6306 8.11789 25.2584 8.51562 24.9914 9.00994C24.73 9.49857 24.5965 10.0355 24.5908 10.6207V12.4361C24.5908 13.1974 24.73 13.8508 25.0084 14.3963C25.2868 14.9361 25.676 15.3508 26.176 15.6406C26.676 15.9247 27.2613 16.0668 27.9317 16.0668C28.3806 16.0668 28.7868 16.0043 29.1505 15.8793C29.5141 15.7486 29.8294 15.5582 30.0965 15.3082C30.3635 15.0582 30.5652 14.7486 30.7016 14.3793L33.5823 14.7031C33.4005 15.4645 33.0539 16.1293 32.5425 16.6974C32.0368 17.2599 31.3891 17.6974 30.5993 18.0099C29.8095 18.3168 28.9061 18.4702 27.8891 18.4702Z" fill="black" style="fill:black;fill-opacity:1;"/>
<path d="M39.8854 10.544V18.2145H36.8002V5.12357H39.7491V7.34801H39.9025C40.2036 6.61505 40.6837 6.03267 41.3428 5.60085C42.0076 5.16903 42.8286 4.95312 43.8059 4.95312C44.7093 4.95312 45.4962 5.1463 46.1667 5.53266C46.8428 5.91903 47.3655 6.47869 47.7349 7.21164C48.1099 7.9446 48.2945 8.8338 48.2888 9.87926V18.2145H45.2036V10.3565C45.2036 9.48153 44.9763 8.79687 44.5218 8.30255C44.0729 7.80823 43.4508 7.56107 42.6553 7.56107C42.1155 7.56107 41.6354 7.68039 41.215 7.91903C40.8002 8.15198 40.4735 8.49005 40.2349 8.93323C40.0019 9.37641 39.8854 9.91335 39.8854 10.544Z" fill="black" style="fill:black;fill-opacity:1;"/>
<path d="M58.4421 5.12357V7.50994H50.9166V5.12357H58.4421ZM52.7745 1.98721H55.8597V14.277C55.8597 14.6918 55.9222 15.0099 56.0472 15.2315C56.1779 15.4474 56.3484 15.5952 56.5586 15.6747C56.7688 15.7543 57.0018 15.794 57.2575 15.794C57.4507 15.794 57.6268 15.7798 57.7859 15.7514C57.9507 15.723 58.0757 15.6974 58.1609 15.6747L58.6808 18.0866C58.516 18.1435 58.2802 18.206 57.9734 18.2741C57.6722 18.3423 57.3029 18.3821 56.8654 18.3935C56.0927 18.4162 55.3967 18.2997 54.7774 18.044C54.158 17.7827 53.6666 17.3793 53.3029 16.8338C52.945 16.2883 52.7688 15.6065 52.7745 14.7883V1.98721Z" fill="black" style="fill:black;fill-opacity:1;"/>
<path d="M65.2694 18.4787C64.4399 18.4787 63.6927 18.331 63.028 18.0355C62.3689 17.7344 61.8461 17.2912 61.4598 16.706C61.0791 16.1207 60.8887 15.3991 60.8887 14.5412C60.8887 13.8026 61.0251 13.1918 61.2978 12.7088C61.5706 12.2258 61.9427 11.8395 62.4143 11.5497C62.8859 11.2599 63.4172 11.0412 64.0081 10.8935C64.6047 10.7401 65.2211 10.6293 65.8575 10.5611C66.6245 10.4815 67.2467 10.4105 67.724 10.348C68.2012 10.2798 68.5478 10.1776 68.7637 10.0412C68.9853 9.89914 69.0961 9.68039 69.0961 9.38494V9.3338C69.0961 8.69176 68.9058 8.1946 68.5251 7.84232C68.1444 7.49005 67.5961 7.31392 66.8802 7.31392C66.1245 7.31392 65.5251 7.47869 65.0819 7.80823C64.6444 8.13778 64.349 8.52698 64.1956 8.97585L61.3149 8.56676C61.5422 7.7713 61.9172 7.10653 62.4399 6.57244C62.9626 6.03266 63.6018 5.62926 64.3575 5.36221C65.1132 5.08948 65.9484 4.95312 66.8632 4.95312C67.4939 4.95312 68.1217 5.02698 68.7467 5.17471C69.3717 5.32244 69.9427 5.56676 70.4598 5.90766C70.9768 6.24289 71.3916 6.70028 71.7041 7.27982C72.0223 7.85937 72.1814 8.5838 72.1814 9.45312V18.2145H69.2155V16.4162H69.1132C68.9257 16.7798 68.6615 17.1207 68.3206 17.4389C67.9853 17.7514 67.562 18.0043 67.0507 18.1974C66.545 18.3849 65.9513 18.4787 65.2694 18.4787ZM66.0706 16.2116C66.6899 16.2116 67.2268 16.0895 67.6814 15.8452C68.1359 15.5952 68.4853 15.2656 68.7297 14.8565C68.9797 14.4474 69.1047 14.0014 69.1047 13.5185V11.9758C69.0081 12.0554 68.8433 12.1293 68.6103 12.1974C68.3831 12.2656 68.1274 12.3253 67.8433 12.3764C67.5592 12.4276 67.278 12.473 66.9995 12.5128C66.7211 12.5526 66.4797 12.5866 66.2751 12.6151C65.8149 12.6776 65.403 12.7798 65.0393 12.9219C64.6757 13.0639 64.3887 13.2628 64.1785 13.5185C63.9683 13.7685 63.8632 14.0923 63.8632 14.4901C63.8632 15.0582 64.0706 15.4872 64.4853 15.777C64.9001 16.0668 65.4285 16.2116 66.0706 16.2116Z" fill="black" style="fill:black;fill-opacity:1;"/>
<path d="M78.8489 0.759938V18.2145H75.7636V0.759938H78.8489Z" fill="black" style="fill:black;fill-opacity:1;"/>
<path d="M82.6378 18.2145V0.759938H89.1833C90.5242 0.759938 91.6492 1.00994 92.5583 1.50994C93.473 2.00994 94.1634 2.69744 94.6293 3.57244C95.1009 4.44176 95.3367 5.43039 95.3367 6.53835C95.3367 7.65767 95.1009 8.65198 94.6293 9.5213C94.1577 10.3906 93.4617 11.0753 92.5412 11.5753C91.6208 12.0696 90.4872 12.3168 89.1406 12.3168H84.8026V9.71732H88.7145C89.4986 9.71732 90.1406 9.58096 90.6406 9.30823C91.1406 9.03551 91.51 8.66051 91.7486 8.18323C91.9929 7.70596 92.1151 7.15767 92.1151 6.53835C92.1151 5.91903 91.9929 5.37357 91.7486 4.90198C91.51 4.43039 91.1378 4.06392 90.6321 3.80255C90.1321 3.53551 89.4872 3.40198 88.6975 3.40198H85.7997V18.2145H82.6378Z" fill="#0756CA" style="fill:#0756CA;fill:color(display-p3 0.0264 0.3361 0.7924);fill-opacity:1;"/>
<path d="M98.5631 18.2145V0.759938H105.109C106.449 0.759938 107.574 0.992892 108.484 1.4588C109.398 1.92471 110.089 2.57812 110.555 3.41903C111.026 4.25426 111.262 5.22869 111.262 6.34232C111.262 7.46164 111.023 8.43323 110.546 9.2571C110.074 10.0753 109.378 10.7088 108.458 11.1577C107.538 11.6008 106.407 11.8224 105.066 11.8224H100.404V9.19744H104.64C105.424 9.19744 106.066 9.08948 106.566 8.87357C107.066 8.65198 107.435 8.33096 107.674 7.91051C107.918 7.48437 108.04 6.96164 108.04 6.34232C108.04 5.72301 107.918 5.1946 107.674 4.7571C107.43 4.31392 107.057 3.97869 106.557 3.75141C106.057 3.51846 105.413 3.40198 104.623 3.40198H101.725V18.2145H98.5631ZM107.58 10.3054L111.901 18.2145H108.373L104.128 10.3054H107.58Z" fill="#0756CA" style="fill:#0756CA;fill:color(display-p3 0.0264 0.3361 0.7924);fill-opacity:1;"/>
<path d="M130.249 9.48721C130.249 11.3679 129.897 12.9787 129.192 14.3196C128.493 15.6548 127.539 16.6776 126.329 17.3878C125.124 18.098 123.758 18.4531 122.229 18.4531C120.701 18.4531 119.331 18.098 118.121 17.3878C116.917 16.6719 115.962 15.6463 115.258 14.3111C114.559 12.9702 114.209 11.3622 114.209 9.48721C114.209 7.60653 114.559 5.99857 115.258 4.66335C115.962 3.32244 116.917 2.29687 118.121 1.58664C119.331 0.876415 120.701 0.521301 122.229 0.521301C123.758 0.521301 125.124 0.876415 126.329 1.58664C127.539 2.29687 128.493 3.32244 129.192 4.66335C129.897 5.99857 130.249 7.60653 130.249 9.48721ZM127.07 9.48721C127.07 8.16335 126.863 7.04687 126.448 6.13778C126.039 5.22301 125.471 4.53267 124.743 4.06676C124.016 3.59517 123.178 3.35937 122.229 3.35937C121.28 3.35937 120.442 3.59517 119.715 4.06676C118.988 4.53267 118.417 5.22301 118.002 6.13778C117.593 7.04687 117.388 8.16335 117.388 9.48721C117.388 10.8111 117.593 11.9304 118.002 12.8452C118.417 13.7543 118.988 14.4446 119.715 14.9162C120.442 15.3821 121.28 15.6151 122.229 15.6151C123.178 15.6151 124.016 15.3821 124.743 14.9162C125.471 14.4446 126.039 13.7543 126.448 12.8452C126.863 11.9304 127.07 10.8111 127.07 9.48721Z" fill="#0756CA" style="fill:#0756CA;fill:color(display-p3 0.0264 0.3361 0.7924);fill-opacity:1;"/>
</svg>
