<svg width="22" height="23" viewBox="0 0 22 23" fill="none" xmlns="http://www.w3.org/2000/svg">
<path d="M11 10.5411L11 0.775C11 0.623122 10.8769 0.500001 10.725 0.500001L4.62117 0.5C4.40517 0.5 4.27349 0.737586 4.38797 0.92075L10.4918 10.6869C10.6382 10.9212 11 10.8174 11 10.5411Z" fill="#0756CA" style="fill:#0756CA;fill:color(display-p3 0.0264 0.3361 0.7924);fill-opacity:1;"/>
<path d="M11.9589 11.5H21.725C21.8769 11.5 22 11.3769 22 11.225V5.12117C22 4.90517 21.7624 4.77349 21.5793 4.88797L11.8131 10.9918C11.5788 11.1382 11.6826 11.5 11.9589 11.5Z" fill="#0756CA" style="fill:#0756CA;fill:color(display-p3 0.0264 0.3361 0.7924);fill-opacity:1;"/>
<path d="M11 12.4589V22.225C11 22.3769 11.1231 22.5 11.275 22.5H17.3788C17.5948 22.5 17.7265 22.2624 17.612 22.0793L11.5082 12.3131C11.3618 12.0788 11 12.1826 11 12.4589Z" fill="#0756CA" style="fill:#0756CA;fill:color(display-p3 0.0264 0.3361 0.7924);fill-opacity:1;"/>
<path d="M10.0411 11.5H0.275C0.123122 11.5 -1.81113e-09 11.6231 0 11.775L7.27875e-08 17.8788C7.53633e-08 18.0948 0.237587 18.2265 0.42075 18.112L10.1869 12.0082C10.4212 11.8618 10.3174 11.5 10.0411 11.5Z" fill="#0756CA" style="fill:#0756CA;fill:color(display-p3 0.0264 0.3361 0.7924);fill-opacity:1;"/>
</svg>
