<svg width="160" height="160" viewBox="0 0 160 160" fill="none" xmlns="http://www.w3.org/2000/svg">
<path d="M80 73.0264L80 2.00001C80 0.895439 79.1046 7.55111e-06 78 7.45455e-06L33.6085 3.57372e-06C32.0376 3.43639e-06 31.0799 1.7279 31.9125 3.06L76.304 74.0864C77.369 75.7904 80 75.0358 80 73.0264Z" fill="#0756CA" style="fill:#0756CA;fill:color(display-p3 0.0264 0.3361 0.7924);fill-opacity:1;"/>
<path d="M86.9736 80L158 80C159.105 80 160 79.1046 160 78L160 33.6085C160 32.0376 158.272 31.0799 156.94 31.9125L85.9136 76.304C84.2096 77.369 84.9642 80 86.9736 80Z" fill="#0756CA" style="fill:#0756CA;fill:color(display-p3 0.0264 0.3361 0.7924);fill-opacity:1;"/>
<path d="M80 86.9736L80 158C80 159.105 80.8954 160 82 160H126.392C127.962 160 128.92 158.272 128.088 156.94L83.696 85.9136C82.631 84.2096 80 84.9642 80 86.9736Z" fill="#0756CA" style="fill:#0756CA;fill:color(display-p3 0.0264 0.3361 0.7924);fill-opacity:1;"/>
<path d="M73.0264 80L2 80C0.895432 80 1.06779e-08 80.8954 2.38498e-08 82L5.53213e-07 126.392C5.71946e-07 127.962 1.7279 128.92 3.06 128.088L74.0864 83.696C75.7904 82.631 75.0358 80 73.0264 80Z" fill="#0756CA" style="fill:#0756CA;fill:color(display-p3 0.0264 0.3361 0.7924);fill-opacity:1;"/>
</svg>
